<svg xmlns="http://www.w3.org/2000/svg" xmlns:xlink="http://www.w3.org/1999/xlink" width="280" height="160" viewBox="0 0 280 160">
  <defs>
    <linearGradient id="linear-gradient" x1="0.56" y1="0.732" x2="0.306" y2="0.157" gradientUnits="objectBoundingBox">
      <stop offset="0" stop-color="#fff" stop-opacity="0"/>
      <stop offset="1" stop-color="#d8d8d8"/>
    </linearGradient>
    <clipPath id="clip-img_logo_1">
      <rect width="280" height="160"/>
    </clipPath>
  </defs>
  <g id="img_logo_1" clip-path="url(#clip-img_logo_1)">
    <rect width="280" height="160" fill="#fff"/>
    <g id="Group_30_Copy" data-name="Group 30 Copy" transform="translate(9.5 4.39)">
      <g id="Group_27" data-name="Group 27" transform="translate(0.5 0.61)">
        <path id="SHOP_EQUATION" data-name="SHOP EQUATION" d="M4.375-12.725a1.525,1.525,0,0,0,.35,1,3.608,3.608,0,0,0,.863.75,6.535,6.535,0,0,0,1.075.55q.563.225,1.013.425a17.493,17.493,0,0,1,1.95,1,6.368,6.368,0,0,1,1.363,1.075,3.466,3.466,0,0,1,.775,1.3,4.864,4.864,0,0,1,.213,1.65,5.586,5.586,0,0,1-1.55,3.987A6.507,6.507,0,0,1,5.85.625,6.059,6.059,0,0,1,3.737.362,10.909,10.909,0,0,1,2.025-.325,3.64,3.64,0,0,1,.988-1.062,2.79,2.79,0,0,1,.425-1.9a1.993,1.993,0,0,1-.163-.825A1.182,1.182,0,0,1,.475-3.4a1.186,1.186,0,0,1,.838-.613,1.323,1.323,0,0,1,.913.213q.375.25.787.537a7.6,7.6,0,0,0,.875.525,5.528,5.528,0,0,0,.975.388,3.946,3.946,0,0,0,1.112.15,2.9,2.9,0,0,0,.987-.175,2.692,2.692,0,0,0,.863-.5,2.375,2.375,0,0,0,.6-.812A2.626,2.626,0,0,0,8.65-4.8a1.973,1.973,0,0,0-.275-1.05,3.36,3.36,0,0,0-.663-.788,3.859,3.859,0,0,0-.85-.562,7.016,7.016,0,0,0-.838-.35,20.445,20.445,0,0,1-1.963-.813A6.789,6.789,0,0,1,2.475-9.4,4.531,4.531,0,0,1,1.4-10.825a4.426,4.426,0,0,1-.4-1.95,4.416,4.416,0,0,1,.488-2.113A4.533,4.533,0,0,1,2.775-16.4a5.682,5.682,0,0,1,1.812-.9,6.659,6.659,0,0,1,2.063-.275,7,7,0,0,1,2.175.375,5.676,5.676,0,0,1,1.663.875,2.751,2.751,0,0,1,.9,1.138,1.272,1.272,0,0,1-.087,1.163,1.371,1.371,0,0,1-.437.437,1.743,1.743,0,0,1-.55.225,1.425,1.425,0,0,1-.562.013.933.933,0,0,1-.45-.2q-.25-.175-.575-.387a6.1,6.1,0,0,0-.687-.388,5.346,5.346,0,0,0-.775-.3,2.873,2.873,0,0,0-.837-.125,1.875,1.875,0,0,0-.85.187,2.162,2.162,0,0,0-.638.475,2.209,2.209,0,0,0-.413.65A1.855,1.855,0,0,0,4.375-12.725Zm22.918-3.4A1.4,1.4,0,0,1,27.63-17a1.543,1.543,0,0,1,1.262-.425,1.7,1.7,0,0,1,1.263.4,1.262,1.262,0,0,1,.387.9V-.8a1.262,1.262,0,0,1-.363.888A1.713,1.713,0,0,1,28.943.5,1.547,1.547,0,0,1,27.68.088,1.34,1.34,0,0,1,27.293-.8V-7.3h-7.6V-.8a1.262,1.262,0,0,1-.362.888A1.713,1.713,0,0,1,18.093.5,1.547,1.547,0,0,1,16.83.088,1.34,1.34,0,0,1,16.443-.8V-16.125A1.3,1.3,0,0,1,16.83-17a1.637,1.637,0,0,1,1.262-.425,1.61,1.61,0,0,1,1.238.4,1.306,1.306,0,0,1,.362.9V-10.1h7.6Zm16.043-1.55a8.055,8.055,0,0,1,3.513.713,6.85,6.85,0,0,1,2.462,1.95A8.311,8.311,0,0,1,50.76-12.1a13.242,13.242,0,0,1,.475,3.625,13.378,13.378,0,0,1-.475,3.637,8.3,8.3,0,0,1-1.45,2.925A6.85,6.85,0,0,1,46.848.038,8.055,8.055,0,0,1,43.335.75,8.028,8.028,0,0,1,39.91.063,6.923,6.923,0,0,1,37.435-1.85a8.241,8.241,0,0,1-1.5-2.925,13.066,13.066,0,0,1-.5-3.7,13.975,13.975,0,0,1,.45-3.613A8.1,8.1,0,0,1,37.3-15.012a6.737,6.737,0,0,1,2.45-1.95A8.246,8.246,0,0,1,43.335-17.675Zm0,15.575a4.55,4.55,0,0,0,2.212-.488,3.954,3.954,0,0,0,1.438-1.338,5.634,5.634,0,0,0,.775-2A12.889,12.889,0,0,0,47.985-8.4a12,12,0,0,0-.25-2.5,6.271,6.271,0,0,0-.8-2.05A3.986,3.986,0,0,0,45.5-14.325a4.345,4.345,0,0,0-2.162-.5,4.259,4.259,0,0,0-2.163.512,4.13,4.13,0,0,0-1.437,1.375,6.132,6.132,0,0,0-.8,2.012,11.515,11.515,0,0,0-.25,2.45A12.08,12.08,0,0,0,38.91-6.15a6.165,6.165,0,0,0,.775,2.05,4.349,4.349,0,0,0,1.438,1.45A4.129,4.129,0,0,0,43.335-2.1ZM56.128-15.525a3.367,3.367,0,0,1,.088-.85.859.859,0,0,1,.337-.5,1.624,1.624,0,0,1,.713-.237,9.424,9.424,0,0,1,1.212-.062H62a12.059,12.059,0,0,1,2.787.275,4.219,4.219,0,0,1,1.863.925,3.69,3.69,0,0,1,1.05,1.712,9.039,9.039,0,0,1,.325,2.613A8.8,8.8,0,0,1,67.678-9,4.231,4.231,0,0,1,66.6-7.2a4.343,4.343,0,0,1-1.862,1.025A10.061,10.061,0,0,1,62-5.85H59.378V-.8A1.283,1.283,0,0,1,59,.1a1.654,1.654,0,0,1-1.25.4A1.6,1.6,0,0,1,56.5.075,1.317,1.317,0,0,1,56.128-.8Zm3.25,6.875H62a2.76,2.76,0,0,0,2.187-.7,3.53,3.53,0,0,0,.588-2.275,3.639,3.639,0,0,0-.213-1.35,2.08,2.08,0,0,0-.588-.838,2.046,2.046,0,0,0-.875-.425A5.015,5.015,0,0,0,62-14.35H59.378ZM4.625,29.45h6.05a2.307,2.307,0,0,1,1.35.3,1.713,1.713,0,0,1,0,2.2,2.307,2.307,0,0,1-1.35.3h-7.7A2.076,2.076,0,0,1,1.8,31.962a1.224,1.224,0,0,1-.425-1.087V16.2a1.265,1.265,0,0,1,.4-1.075,1.989,1.989,0,0,1,1.2-.3H10.7a1.628,1.628,0,0,1,1.088.313,1.442,1.442,0,0,1,.387,1.087,1.249,1.249,0,0,1-.375,1.087,1.789,1.789,0,0,1-1.125.313H4.625V21.85h5.8a1.621,1.621,0,0,1,1.15.337,1.457,1.457,0,0,1,.35,1.087,1.369,1.369,0,0,1-.35,1.063,1.71,1.71,0,0,1-1.15.313h-5.8ZM24.968,14.325a8.055,8.055,0,0,1,3.512.713,6.85,6.85,0,0,1,2.462,1.95,8.311,8.311,0,0,1,1.45,2.913,13.242,13.242,0,0,1,.475,3.625,14.681,14.681,0,0,1-.225,2.65,9.623,9.623,0,0,1-.8,2.425l1.55,1.45a1.028,1.028,0,0,1,.263.975,1.972,1.972,0,0,1-.563,1.05,2.007,2.007,0,0,1-1.075.6.99.99,0,0,1-.925-.25l-1.3-1.2a7.591,7.591,0,0,1-2.2,1.163,8.575,8.575,0,0,1-2.625.362,8.028,8.028,0,0,1-3.425-.687,6.923,6.923,0,0,1-2.475-1.913,8.241,8.241,0,0,1-1.5-2.925,13.066,13.066,0,0,1-.5-3.7,13.975,13.975,0,0,1,.45-3.613,8.1,8.1,0,0,1,1.413-2.925,6.737,6.737,0,0,1,2.45-1.95A8.246,8.246,0,0,1,24.968,14.325Zm0,15.55a5.261,5.261,0,0,0,1.438-.175,4.365,4.365,0,0,0,1.188-.55L26.268,27.9a.9.9,0,0,1-.3-.775,2,2,0,0,1,.7-1.175,2.131,2.131,0,0,1,1.087-.663.93.93,0,0,1,.862.262l.725.7a9.25,9.25,0,0,0,.212-1.275q.062-.65.063-1.375a12,12,0,0,0-.25-2.5,6.271,6.271,0,0,0-.8-2.05,3.986,3.986,0,0,0-1.437-1.375,4.345,4.345,0,0,0-2.162-.5,4.259,4.259,0,0,0-2.163.513,4.13,4.13,0,0,0-1.437,1.375,6.132,6.132,0,0,0-.8,2.013,11.515,11.515,0,0,0-.25,2.45,11.889,11.889,0,0,0,.225,2.312,6.165,6.165,0,0,0,.775,2.038,4.349,4.349,0,0,0,1.438,1.45A4.129,4.129,0,0,0,24.968,29.875Zm13.693-14A1.317,1.317,0,0,1,39.035,15a1.6,1.6,0,0,1,1.25-.425,1.654,1.654,0,0,1,1.25.4,1.283,1.283,0,0,1,.375.9v9.25a9.454,9.454,0,0,0,.175,1.9,3.929,3.929,0,0,0,.588,1.45A2.682,2.682,0,0,0,43.8,29.4a5.207,5.207,0,0,0,3.587.013,2.643,2.643,0,0,0,1.113-.9,3.538,3.538,0,0,0,.563-1.437,11.314,11.314,0,0,0,.15-1.95v-9.25A1.366,1.366,0,0,1,49.56,15a1.584,1.584,0,0,1,1.275-.425,1.654,1.654,0,0,1,1.25.4,1.283,1.283,0,0,1,.375.9v10.8a5.518,5.518,0,0,1-.587,2.613,5.709,5.709,0,0,1-1.55,1.862,6.524,6.524,0,0,1-2.2,1.113,8.975,8.975,0,0,1-5.05,0,6.8,6.8,0,0,1-2.212-1.1,5.786,5.786,0,0,1-1.588-1.85,5.387,5.387,0,0,1-.612-2.638ZM61.578,28.3l-1.1,2.875a2.415,2.415,0,0,1-.625.963,1.7,1.7,0,0,1-1.175.362,1.757,1.757,0,0,1-1.237-.425q-.463-.425-.112-1.45L62.478,15.6a1.442,1.442,0,0,1,.538-.712,2.136,2.136,0,0,1,2.225,0,1.442,1.442,0,0,1,.537.712l5.2,15.075a1.274,1.274,0,0,1-.162,1.388,1.727,1.727,0,0,1-1.238.438,1.525,1.525,0,0,1-1.15-.338,2.449,2.449,0,0,1-.575-.862l-1.2-3Zm4.475-2.825-1.925-6.2-1.925,6.2Zm16.868-7.75V31.2a1.283,1.283,0,0,1-.375.9,1.654,1.654,0,0,1-1.25.4,1.6,1.6,0,0,1-1.25-.425,1.317,1.317,0,0,1-.375-.875V17.725h-3.2A1.426,1.426,0,0,1,75.6,17.4a1.332,1.332,0,0,1-.425-1.125,1.382,1.382,0,0,1,.4-1.112,1.359,1.359,0,0,1,.9-.337h9.65a1.359,1.359,0,0,1,.9.337,1.382,1.382,0,0,1,.4,1.112A1.332,1.332,0,0,1,87,17.4a1.426,1.426,0,0,1-.875.325ZM95.364,30.9a1.662,1.662,0,0,1-.387,1.2,1.7,1.7,0,0,1-1.263.4,1.61,1.61,0,0,1-1.237-.4,1.7,1.7,0,0,1-.363-1.175V16.175a1.414,1.414,0,0,1,1.6-1.6,1.883,1.883,0,0,1,1.225.35,1.512,1.512,0,0,1,.425,1.225Zm12.818-16.575a8.055,8.055,0,0,1,3.513.713,6.851,6.851,0,0,1,2.463,1.95,8.311,8.311,0,0,1,1.45,2.913,13.242,13.242,0,0,1,.475,3.625,13.378,13.378,0,0,1-.475,3.637,8.3,8.3,0,0,1-1.45,2.925,6.85,6.85,0,0,1-2.463,1.95,8.945,8.945,0,0,1-6.937.025,6.923,6.923,0,0,1-2.475-1.913,8.241,8.241,0,0,1-1.5-2.925,13.066,13.066,0,0,1-.5-3.7,13.975,13.975,0,0,1,.45-3.613,8.1,8.1,0,0,1,1.412-2.925,6.737,6.737,0,0,1,2.45-1.95A8.246,8.246,0,0,1,108.181,14.325Zm0,15.575a4.55,4.55,0,0,0,2.213-.487,3.954,3.954,0,0,0,1.438-1.337,5.634,5.634,0,0,0,.775-2,12.889,12.889,0,0,0,.225-2.475,12,12,0,0,0-.25-2.5,6.271,6.271,0,0,0-.8-2.05,3.986,3.986,0,0,0-1.437-1.375,4.345,4.345,0,0,0-2.163-.5,4.259,4.259,0,0,0-2.162.513,4.13,4.13,0,0,0-1.437,1.375,6.132,6.132,0,0,0-.8,2.013,11.515,11.515,0,0,0-.25,2.45,12.08,12.08,0,0,0,.225,2.325,6.165,6.165,0,0,0,.775,2.05,4.349,4.349,0,0,0,1.438,1.45A4.129,4.129,0,0,0,108.181,29.9Zm16.043,1.3a1.283,1.283,0,0,1-.375.9,1.654,1.654,0,0,1-1.25.4,1.6,1.6,0,0,1-1.25-.425,1.317,1.317,0,0,1-.375-.875V15.75a1.4,1.4,0,0,1,.25-.812q.25-.363,1.15-.363a1.124,1.124,0,0,1,.813.3,4.98,4.98,0,0,1,.537.6l7.9,10.625V15.875A1.317,1.317,0,0,1,132,15a1.6,1.6,0,0,1,1.25-.425,1.654,1.654,0,0,1,1.25.4,1.283,1.283,0,0,1,.375.9v15.5a1.3,1.3,0,0,1-.25.775q-.25.35-1.125.35a1.215,1.215,0,0,1-.837-.3,4.123,4.123,0,0,1-.562-.6l-7.875-10.275Z" transform="translate(125.163 53.058)" fill="#14325d"/>
        <path id="Stroke_2" data-name="Stroke 2" d="M95.107,4.578A9.1,9.1,0,0,0,87.208,0H35.178a9.1,9.1,0,0,0-7.9,4.578L1.2,50.091a9.1,9.1,0,0,0,0,9.05L27.28,104.655a9.1,9.1,0,0,0,7.9,4.578h52.03a9.1,9.1,0,0,0,7.9-4.578l26.076-45.514a9.1,9.1,0,0,0,0-9.05Z" transform="translate(0 122.387) rotate(-90)" fill="#7ea9e6"/>
        <g id="Group_11" data-name="Group 11" transform="translate(58.329 60.191)">
          <g id="Group_16" data-name="Group 16" transform="translate(0 0)">
            <g id="Group_8" data-name="Group 8" transform="matrix(-0.454, -0.891, 0.891, -0.454, 13.229, 47.162)">
              <path id="Rectangle" d="M27.308,13.654,0,0,.45,14.048,27.758,27.7Z" transform="translate(1.382 18.991)" fill="#fff"/>
              <path id="Rectangle-2" data-name="Rectangle" d="M27.308,13.654,0,0,.45,14.048,27.758,27.7Z" transform="translate(0 0)" fill="#fff"/>
            </g>
            <path id="Path_51" data-name="Path 51" d="M0,12.888,12.313,6.11,0,0Z" transform="translate(13.229 34.274)" fill="#f0f0f0"/>
            <path id="Path_52" data-name="Path 52" d="M0,12.427V0L12.313,5.649Z" transform="translate(29.523 24.882)" fill="#f0f0f0"/>
          </g>
        </g>
        <path id="Path_50" data-name="Path 50" d="M3.394,1.009A2.276,2.276,0,0,0,0,2.99V56.352a9.1,9.1,0,0,0,4.637,7.932L52.193,91.055a2.276,2.276,0,0,0,3.392-1.983V34.457a6.827,6.827,0,0,0-3.471-5.945Z" transform="translate(0 30.81)" fill="#14325d"/>
        <g id="Group_18" data-name="Group 18" transform="translate(10.511 58.918)">
          <g id="Group_17" data-name="Group 17" transform="translate(0 0)">
            <g id="Group_14" data-name="Group 14" transform="translate(5.419)">
              <path id="Path_20" data-name="Path 20" d="M0,24.807l15.941,9.128V9.359L0,0Z" transform="translate(0)" fill="#fff"/>
              <path id="Path_22" data-name="Path 22" d="M0,10.406,15.941,0V19.535Z" transform="translate(0 14.401)" fill="#f0f0f0"/>
            </g>
            <path id="Path_57" data-name="Path 57" d="M5.419,0,0,4.108l15.951,9.243L21.36,9.359Z" transform="translate(0 0)" fill="#fff"/>
            <path id="Path_58" data-name="Path 58" d="M0,0V2.567L15.951,12.3V9.243Z" transform="translate(0 4.108)" fill="#d8d8d8"/>
          </g>
        </g>
        <path id="Path_53" data-name="Path 53" d="M2.167,28.523A2.276,2.276,0,0,0,2.18,32.48l47.545,26.84A9.1,9.1,0,0,0,58.8,59.25L104.535,32.5a2.276,2.276,0,0,0-.018-3.939L57.837,1.814a9.1,9.1,0,0,0-9.05,0Z" transform="translate(1.305 -0.61)" fill="#bbd6fd"/>
        <g id="Group_19" data-name="Group 19" transform="translate(66.883 35.476)">
          <path id="Path_59" data-name="Path 59" d="M0,19.4V32.187L33.566,11.556V0Z" transform="translate(4.674 3.169)" fill="#ffd100"/>
          <path id="Path_60" data-name="Path 60" d="M4.674,22.573,0,19.263,32.963,0l5.278,3.169Z" transform="translate(0 0)" fill="#fff"/>
          <path id="Path_61" data-name="Path 61" d="M0,0,4.674,3.31V16.094L0,11.877Z" transform="translate(0 19.263)" fill="#d8d8d8"/>
        </g>
        <path id="Path_62" data-name="Path 62" d="M0,1.355,2.28,0,57.54,31.362l-2.361,1.444Z" transform="translate(18.911 17.683)" fill="#fff"/>
        <path id="Path_62-2" data-name="Path 62" d="M0,1.355,2.28,0,57.54,31.362l-2.361,1.444Z" transform="translate(38.687 6.577)" fill="#fff"/>
        <path id="Path_62-3" data-name="Path 62" d="M57.54,1.355,55.26,0,0,31.362l2.361,1.444Z" transform="matrix(1, -0.017, 0.017, 1, 35.563, 18.013)" fill="#fff"/>
        <path id="Path_62-4" data-name="Path 62" d="M57.54,1.355,55.26,0,0,31.362l2.361,1.444Z" transform="matrix(1, -0.017, 0.017, 1, 15.596, 7.254)" fill="#fff"/>
      </g>
      <path id="Path_56" data-name="Path 56" d="M104.493,24.289l-49.2,35.722L0,31.045,55.293,0Z" transform="translate(52.943 91.584)" fill="url(#linear-gradient)"/>
    </g>
  </g>
</svg>
